<?xml version="1.0" encoding="iso-8859-1"?>
<!-- Generator: Adobe Illustrator 19.0.0, SVG Export Plug-In . SVG Version: 6.00 Build 0)  -->
<svg version="1.1" id="Layer_1" xmlns="http://www.w3.org/2000/svg" xmlns:xlink="http://www.w3.org/1999/xlink" x="0px" y="0px"
	 viewBox="0 0 392.598 392.598" style="fill: #black;;" xml:space="preserve">
<g>
	<g>
		<path fill="#black;"  d="M318.19,112.317V10.951c0-3.685-4.073-13.77-15.515-9.891L100.59,95.961H10.925C4.913,95.961,0,100.81,0,106.887v178.941
			c0,6.012,4.848,10.925,10.925,10.925h89.665l202.149,94.901c1.487,0.711,13.705,3.62,15.515-9.891v-101.43
			c41.762-4.913,74.343-40.663,74.343-84.04C392.598,152.915,360.016,117.165,318.19,112.317z M92.121,274.838H21.851V117.747
			h70.271V274.838z M296.404,364.568l-182.497-85.721v-62.901h23.273c6.012,0,10.925-4.849,10.925-10.925
			c0-6.012-4.849-10.925-10.925-10.925h-23.273v-21.786h44.929c6.012,0,10.925-4.849,10.925-10.925
			c0-6.012-4.848-10.925-10.925-10.925h-44.994v-36.784l182.562-85.592V364.568z M318.19,258.289V134.361
			c29.737,4.784,52.558,30.707,52.558,61.996C370.812,227.582,347.927,253.505,318.19,258.289z"/>
	</g>
</g>
<g>
</g>
<g>
</g>
<g>
</g>
<g>
</g>
<g>
</g>
<g>
</g>
<g>
</g>
<g>
</g>
<g>
</g>
<g>
</g>
<g>
</g>
<g>
</g>
<g>
</g>
<g>
</g>
<g>
</g>
</svg>
